<svg width="82" height="18" viewBox="0 0 82 18" fill="none" xmlns="http://www.w3.org/2000/svg">
<path fill-rule="evenodd" clip-rule="evenodd" d="M78.938 1.47804C78.9545 0.652639 79.6315 -0.00614176 80.457 4.31958e-05C80.8499 -0.00209504 81.2273 0.152871 81.5052 0.430457C81.7832 0.708042 81.9387 1.08522 81.937 1.47804V15.685C81.937 16.2209 81.6512 16.7161 81.187 16.9841C80.7229 17.252 80.1512 17.252 79.687 16.9841C79.2229 16.7161 78.937 16.2209 78.937 15.685V10.1H72.86V15.686C72.8472 16.5196 72.1746 17.1922 71.341 17.205C70.5156 17.1886 69.8569 16.5116 69.8631 15.686V1.51904C69.8615 1.12656 70.0166 0.749697 70.2942 0.47217C70.5717 0.194643 70.9486 0.0394401 71.341 0.0410432C72.1666 0.0348582 72.8437 0.693639 72.86 1.51904V7.06304H78.938V1.47804ZM23.05 1.51904C23.0619 0.707711 23.7167 0.052858 24.528 0.0410432C24.9274 0.0299836 25.3142 0.180708 25.6008 0.459005C25.8874 0.737303 26.0494 1.11957 26.05 1.51904V15.686C26.05 16.5145 25.3785 17.186 24.55 17.186C23.7216 17.186 23.05 16.5145 23.05 15.686V1.51904ZM16.192 15.727V1.56004C16.184 0.739891 15.5327 0.0709264 14.713 0.0410432C13.8876 0.0574438 13.2289 0.7345 13.235 1.56004V11.252L6.37705 0.986043C6.093 0.50112 5.58338 0.192336 5.02205 0.165043H1.77805C0.958794 0.195447 0.30803 0.864263 0.300049 1.68404C0.311864 2.49538 0.966716 3.15023 1.77805 3.16204H3.46305V15.727C3.47945 16.5524 4.15651 17.2112 4.98205 17.205C5.37453 17.2066 5.7514 17.0514 6.02892 16.7739C6.30645 16.4964 6.46165 16.1195 6.46005 15.727V6.40504L13.318 16.425C13.6405 16.8634 14.132 17.1464 14.673 17.205C15.4867 17.1824 16.1471 16.5398 16.192 15.727ZM42.928 0.123043L42.9268 0.123063L42.924 0.123043H42.928ZM42.9268 0.123063C43.3198 0.126364 43.6946 0.289302 43.9652 0.574524C44.2363 0.860403 44.3793 1.24444 44.361 1.63804V6.73004C44.3636 9.58124 42.411 12.0623 39.639 12.73V14.171H41.3241C42.1525 14.171 42.8241 14.8426 42.8241 15.671C42.8241 16.4995 42.1525 17.171 41.3241 17.171H35C34.1716 17.171 33.5 16.4995 33.5 15.671C33.5 14.8426 34.1716 14.171 35 14.171H36.687V12.734C33.8986 12.0922 31.9335 9.59519 31.965 6.73404V1.64204C31.9589 0.8165 32.6176 0.139444 33.4431 0.123043C34.2766 0.13591 34.9492 0.808511 34.962 1.64204V6.73404C34.993 8.4922 36.4271 9.90127 38.1855 9.90127C39.944 9.90127 41.3781 8.4922 41.409 6.73404V1.64204C41.4219 0.808937 42.0938 0.136599 42.9268 0.123063ZM64.2001 15.686V6.36504H64.196C64.2245 4.11634 63.0412 2.02617 61.0983 0.893524C59.1555 -0.239123 56.7536 -0.239123 54.8108 0.893524C52.8679 2.02617 51.6846 4.11634 51.7131 6.36504V7.14504H50.153C49.3338 7.17545 48.683 7.84426 48.675 8.66404C48.6869 9.47538 49.3417 10.1302 50.153 10.142H51.7131V15.686C51.7435 16.5053 52.4123 17.1561 53.232 17.164C54.0434 17.1522 54.6982 16.4974 54.71 15.686V10.142H61.203V15.686C61.2149 16.4974 61.8697 17.1522 62.681 17.164C63.5008 17.1561 64.1696 16.5053 64.2001 15.686ZM61.2 6.36504C61.2051 5.50313 60.865 4.67504 60.2555 4.06557C59.646 3.45609 58.818 3.11595 57.956 3.12104C56.1721 3.13945 54.7305 4.58111 54.712 6.36504V7.14504H61.2V6.36504Z" fill="url(#paint0_linear)"/>
<defs>
<linearGradient id="paint0_linear" x1="989.944" y1="152.031" x2="989.987" y2="-223.713" gradientUnits="userSpaceOnUse">
<stop stop-color="#1FC3AA"/>
<stop offset="1" stop-color="#17DC89"/>
</linearGradient>
</defs>
</svg>
